<?xml version="1.0" encoding="UTF-8"?><svg id="a" xmlns="http://www.w3.org/2000/svg" viewBox="0 0 761.03 385.4"><defs><style>.b{fill:#efb881;}.c{fill:none;}.d{fill:#f7a603;}.e{fill:#0065aa;}</style></defs><path class="e" d="M761.03,91.84c0,54.09-37.97,100.44-113.92,139.03-45.77,23.51-99.5,41.97-161.08,55.15-12.46,2.66-22.5,11.85-26.25,24.02l-16.95,55.14c-3.69,12.02-14.79,20.22-27.37,20.22h-77.27l61.04-196.39c2.63-8.46-3.69-17.04-12.55-17.04H181.81c-54.71,0-81.53-42.16-81.53-68.82l380.36-.08c21.43,0,36.72,20.78,30.33,41.24l-28.78,92.14c37.2-8.06,70.06-20.46,98.89-37.51,39.99-23.87,60.91-51.77,62.31-83.39,.93-20.46-5.89-33.94-20.46-40.3-8.68-3.87-24.49-5.73-47.27-5.73l-491.39,.76C29.55,70.27,0,26.66,0,0L620.45,.54c41.23,0,72.69,5.11,94.39,15.34,30.84,14.41,46.19,39.68,46.19,75.95h0Z"/><path class="d" d="M347.6,207.96H175.04c0,26.66,26.97,68.82,81.52,68.82h84.63l16.94-54.51c2.21-7.1-3.1-14.3-10.53-14.3Zm-33.17,106.63h-65.31c0,22.78,19.68,56.89,59.67,66.34l16.17-52.03c2.21-7.1-3.1-14.31-10.53-14.31Z"/><path class="d" d="M480.3,103.07l-380.36,.08c0,26.66,26.81,68.82,81.52,68.82h204.88c8.86,0,15.18,8.58,12.55,17.04l-61.04,196.39h77.27c12.58,0,23.68-8.2,27.37-20.22l5.17-16.83,34.37-111.95c-.06,.01-.13,.03-.19,.04l10.41-33.33,18.37-58.8c6.39-20.46-8.9-41.25-30.32-41.24Z"/><g><path class="b" d="M313.76,322h-57.87c1.58,8.99,6.1,18.72,12.75,27.13,6.4,8.1,17.48,18.44,34.94,24.06l.33-1.07c-13.48-5.62-22.35-14.12-27.75-20.95-5.49-6.95-9.46-14.81-11.4-22.3h52.59l.43-1.4c.55-1.77-.16-3.11-.63-3.76-.47-.64-1.54-1.72-3.4-1.72Z"/><path class="b" d="M206.86,249.99c-7.86-8.04-13.67-18.19-16.16-27.76h159.83l.43-1.4c.55-1.77-.16-3.11-.63-3.76-.47-.64-1.54-1.72-3.4-1.72H181.82c1.7,9.61,6.95,21.81,17.73,32.83,8.47,8.66,22.63,18.74,44.17,21.58-17.61-3.58-29.48-12.24-36.85-19.77Z"/><path class="b" d="M132.72,144.6c-8.96-9.18-13.9-19.37-16.08-27.77l369.19-.08c7.07,0,13.52,3.26,17.7,8.96,.27,.36,.52,.73,.77,1.11-.81-2.38-2-4.66-3.55-6.76-4.75-6.46-12.08-10.17-20.11-10.17l-372.92,.08c1.69,9.62,6.93,21.82,17.68,32.83,8.46,8.67,22.63,18.75,44.23,21.58-17.67-3.57-29.55-12.23-36.92-19.77Z"/><path class="b" d="M632.05,70.17c-4.79-2.13-10.98-3.72-18.84-4.8,5.01,.95,9.16,2.17,12.48,3.65,11.92,5.21,25.84,17.57,24.51,46.83-1.49,33.92-23.57,63.84-65.65,88.95-29.11,17.21-63.06,30.1-100.91,38.31l-3.92,.85-2.65,8.63,12.38-2.68c38.17-8.27,72.42-21.27,101.8-38.65,43-25.66,65.57-56.41,67.11-91.39,1.41-30.95-13.52-44.11-26.3-49.7Z"/><path class="b" d="M711.93,22.05c-20.68-9.75-51.46-14.69-91.49-14.69L7.5,6.82c2.13,11.13,9.09,23.64,18.94,33.49,9,9.01,23.86,19.49,45.84,22.37-18.13-3.66-30.67-12.71-38.54-20.59-9.6-9.61-14.91-19.97-17.25-28.4l609.15,.53c39.59,0,69.94,4.85,90.23,14.41,14.86,6.94,25.55,16.6,32.22,29.18-6.61-15.75-18.59-27.56-36.13-35.76Z"/><path class="b" d="M392.73,166.08c3.97,1.24,7.47,3.72,10.03,7.2,3.8,5.16,4.89,11.63,2.99,17.76l-58.29,187.55h9.51l56.81-182.78c2.19-7.04,.94-14.47-3.43-20.41-4.2-5.7-10.58-9.07-17.61-9.32Z"/></g><line class="c" x1="492.36" y1="203.9" x2="451.95" y2="335.53"/></svg>